<svg xmlns="http://www.w3.org/2000/svg" viewBox="0 0 48 48" fill="none">
  <rect width="48" height="48" rx="12" fill="url(#a)"/>
  <path d="M32.5 27.5l-3.5-3.5 2-2a2 2 0 0 0 0-2.8l-2.7-2.7a2 2 0 0 0-2.8 0l-2 2-3.5-3.5a2 2 0 0 0-2.8 0l-1.2 1.2a5 5 0 0 0 6.6 7.4l3.5 3.5a2 2 0 0 0 2.8 0l1.2-1.2a5 5 0 0 0-7.4-6.6l3.5 3.5 2-2a2 2 0 0 1 2.8 0l2.7 2.7a2 2 0 0 1 0 2.8l-2 2z" stroke="#fff" stroke-width="2.5" stroke-linecap="round" stroke-linejoin="round"/>
  <defs>
    <linearGradient id="a" x1="0" y1="0" x2="48" y2="48" gradientUnits="userSpaceOnUse">
      <stop stop-color="#232942"/>
      <stop offset="1" stop-color="#393A3F"/>
    </linearGradient>
  </defs>
</svg> 